<?xml version="1.0" encoding="UTF-8" standalone="no"?>
<!-- Filename: 06f7e6f2349baced5339e04bcb61e37476768cab20951b3677a9b74f33cd2b0f.svg -->
<!-- Created with https://svgstud.io -->
<svg
  version="1.1"
  xmlns="http://www.w3.org/2000/svg"
  xmlns:xlink="http://www.w3.org/1999/xlink"
  xmlns:svg="http://www.w3.org/2000/svg"
  xmlns:rdf="http://www.w3.org/1999/02/22-rdf-syntax-ns#"
  xmlns:cc="http://creativecommons.org/ns#"
  xmlns:dc="http://purl.org/dc/elements/1.1/"
  viewBox="0 0 768 768"
  width="768"
  height="768"
  role="img"
  aria-labelledby="titleID descID"
>
  <title id="titleID">finance app ai</title>
  <desc id="descID">AI-generated SVG illustration: finance app ai, created on https://svgstud.io</desc>

  <rect width="100%" height="100%" fill="white" />

  <image
    href="https://svgstud.io/pngs/06f7e6f2349baced5339e04bcb61e37476768cab20951b3677a9b74f33cd2b0f.png"
    x="0" y="0"
    width="768" height="768"
    preserveAspectRatio="xMidYMid meet"
    opacity="0"
  />

  <metadata>
    Created by https://svgstud.io and licensed under CC-BY-SA 4.0 license. Please attribute https://svgstud.io
  </metadata>
  <metadata>
    finance app ai
  </metadata>
  <metadata>
    7
  </metadata>
  <metadata>
    <rdf:RDF
      xmlns:rdf="http://www.w3.org/1999/02/22-rdf-syntax-ns#"
      xmlns:cc="http://creativecommons.org/ns#"
      xmlns:dc="http://purl.org/dc/elements/1.1/"
    >
      <cc:Work rdf:about="">
        <cc:license rdf:resource="http://creativecommons.org/licenses/by-sa/4.0/" />
        <dc:creator>
          <cc:Agent>
            <dc:title>https://svgstud.io</dc:title>
          </cc:Agent>
        </dc:creator>
      </cc:Work>
      <cc:License rdf:about="http://creativecommons.org/licenses/by-sa/4.0/">
        <cc:permits rdf:resource="http://creativecommons.org/ns#Reproduction" />
        <cc:permits rdf:resource="http://creativecommons.org/ns#Distribution" />
        <cc:requires rdf:resource="http://creativecommons.org/ns#Notice" />
        <cc:requires rdf:resource="http://creativecommons.org/ns#Attribution" />
        <cc:permits rdf:resource="http://creativecommons.org/ns#DerivativeWorks" />
        <cc:requires rdf:resource="http://creativecommons.org/ns#ShareAlike" />
      </cc:License>
    </rdf:RDF>
  </metadata>
  <metadata id="uid">06f7e6f2349baced5339e04bcb61e37476768cab20951b3677a9b74f33cd2b0f</metadata>

  <path stroke="none" fill="black" fill-rule="evenodd" d="M409.50,683.85C386.40,683.77 361.43,683.35 354.00,682.91C346.57,682.46 333.52,681.39 325.00,680.51C316.48,679.63 302.75,678.04 294.50,676.97C286.25,675.90 269.82,673.20 258.00,670.96C246.18,668.73 231.82,665.34 226.11,663.43C220.40,661.52 212.74,658.40 209.10,656.49C205.47,654.57 201.23,651.84 199.68,650.41C198.14,648.98 196.46,646.72 195.96,645.39C195.45,644.06 194.78,638.59 194.46,633.24C194.14,627.88 193.69,622.55 193.46,621.40C193.07,619.45 192.20,619.26 181.27,618.72C173.36,618.34 167.23,617.44 162.57,615.98C158.75,614.78 146.83,609.50 136.07,604.24C125.30,598.98 113.58,592.75 110.00,590.40C106.42,588.05 101.13,584.10 98.24,581.62C95.34,579.15 91.63,576.16 89.99,574.99C88.34,573.82 87.00,572.24 87.00,571.49C87.00,570.73 89.55,568.03 92.66,565.50C95.77,562.96 102.10,558.66 106.72,555.93C111.33,553.20 117.70,549.92 120.88,548.63C124.05,547.34 129.00,545.72 131.88,545.03C134.75,544.34 137.38,544.05 137.72,544.39C138.06,544.72 137.67,545.00 136.86,545.00C136.06,545.00 131.82,546.73 127.45,548.85C123.08,550.96 114.55,556.00 108.50,560.05C102.45,564.09 97.18,567.87 96.79,568.44C96.40,569.02 96.41,569.81 96.81,570.21C97.20,570.60 104.48,572.07 112.98,573.46C123.57,575.20 132.29,576.00 140.72,576.00C147.47,576.00 153.00,576.30 153.00,576.68C153.00,577.05 151.54,578.64 149.75,580.22C146.50,583.08 146.50,583.08 151.00,582.35C153.47,581.95 161.80,581.69 169.49,581.78C177.19,581.87 184.78,582.23 186.36,582.58C188.36,583.02 189.12,582.85 188.84,582.02C188.62,581.36 181.03,576.84 171.97,571.98C159.65,565.36 153.93,562.85 149.27,562.04C145.84,561.44 142.01,560.54 140.77,560.04C138.50,559.13 138.50,559.13 141.00,559.07C142.38,559.04 147.34,559.46 152.03,559.99C156.73,560.53 163.71,562.04 167.55,563.35C171.40,564.65 176.55,566.74 179.02,567.99C181.48,569.24 186.94,572.68 191.15,575.63C195.36,578.58 199.13,581.00 199.53,581.00C199.93,581.00 200.01,579.44 199.70,577.52C199.39,575.61 197.49,570.40 195.48,565.95C193.46,561.49 192.07,557.60 192.37,557.30C192.67,557.00 194.62,557.61 196.71,558.65C198.79,559.70 202.74,561.89 205.47,563.51C210.45,566.45 210.45,566.45 208.42,562.98C207.30,561.06 204.18,557.83 201.47,555.78C198.77,553.74 193.50,550.94 189.78,549.55C186.05,548.17 179.29,546.10 174.75,544.95C168.14,543.28 165.71,542.12 162.50,539.10C160.30,537.03 155.57,533.27 152.00,530.76C148.43,528.24 143.65,524.23 141.39,521.84C139.12,519.45 134.03,513.12 130.07,507.77C126.11,502.41 122.45,497.78 121.93,497.46C121.42,497.14 121.00,496.49 121.00,496.01C121.00,495.53 121.85,494.87 122.88,494.54C123.92,494.21 127.18,494.85 130.13,495.95C133.08,497.06 137.97,500.03 141.00,502.55C144.03,505.07 148.56,508.19 151.07,509.49C153.59,510.79 158.54,512.60 162.07,513.52C165.61,514.43 168.72,515.42 169.00,515.72C169.28,516.03 167.14,515.97 164.25,515.60C161.36,515.23 159.00,515.20 159.00,515.52C159.00,515.85 161.02,517.01 163.50,518.10C165.97,519.20 171.71,520.75 176.25,521.55C180.79,522.34 184.61,523.00 184.75,523.00C184.89,523.00 185.00,522.51 185.00,521.91C185.00,521.31 181.06,516.98 176.25,512.29C170.13,506.33 168.25,503.99 170.00,504.52C171.38,504.93 175.31,506.59 178.74,508.20C182.18,509.82 187.72,513.19 191.06,515.71C194.40,518.22 199.61,522.53 202.63,525.29C205.65,528.06 210.05,532.83 212.41,535.91C214.76,538.98 217.77,543.41 219.09,545.74C220.42,548.08 221.84,549.99 222.25,549.99C222.66,550.00 223.00,543.55 223.00,535.66C223.00,527.77 222.70,514.47 222.34,506.10C221.68,490.87 221.68,490.87 216.93,488.47C214.32,487.14 210.58,484.10 208.62,481.71C206.66,479.32 203.91,474.86 202.51,471.79C201.10,468.73 199.45,462.69 198.82,458.36C198.17,453.87 198.00,448.37 198.43,445.54C198.93,442.25 199.45,441.07 199.98,442.04C200.41,442.84 201.28,445.94 201.91,448.93C202.54,451.91 203.96,455.83 205.08,457.63C206.19,459.43 208.59,461.82 210.42,462.95C212.24,464.08 214.70,465.00 215.87,465.00C217.04,465.00 218.00,464.49 218.00,463.87C218.00,463.25 217.00,461.11 215.77,459.12C213.54,455.50 213.54,455.50 216.48,457.81C219.25,459.99 219.51,460.02 220.71,458.38C221.67,457.07 221.86,453.08 221.48,442.57C221.20,434.83 220.51,411.18 219.95,390.00C219.39,368.82 218.48,344.60 217.94,336.17C217.40,327.73 216.53,299.16 216.01,272.67C215.49,246.17 214.76,211.00 214.38,194.50C213.74,165.85 213.81,164.12 215.87,156.00C217.05,151.32 219.56,144.26 221.43,140.31C223.31,136.35 226.76,130.28 229.11,126.81C231.45,123.34 236.05,117.86 239.32,114.64C242.60,111.41 247.86,107.11 251.02,105.06C254.18,103.02 260.18,100.11 264.35,98.59C268.53,97.06 272.48,95.99 273.13,96.21C273.78,96.43 269.86,99.46 264.41,102.95C258.97,106.45 251.64,112.05 248.14,115.40C244.63,118.76 239.80,124.05 237.39,127.16C234.99,130.27 231.22,136.44 229.01,140.86C226.81,145.28 224.33,151.73 223.52,155.20C222.39,159.96 222.04,167.97 222.06,188.00C222.07,202.57 222.50,234.97 223.02,260.00C223.53,285.02 224.40,308.43 224.95,312.00C225.51,315.57 226.41,329.07 226.96,342.00C227.50,354.93 228.45,395.20 229.07,431.50C229.68,467.80 230.52,510.34 230.92,526.03C231.64,554.10 231.70,554.66 234.33,560.41C235.80,563.62 238.97,569.01 241.38,572.38C243.78,575.74 249.35,581.94 253.75,586.14C259.59,591.72 264.00,594.88 270.12,597.89C275.74,600.65 280.81,602.32 285.50,602.98C289.35,603.52 301.80,603.97 313.17,603.98C324.54,603.99 334.48,603.75 335.26,603.45C336.43,603.01 336.61,600.64 336.24,590.70C336.00,583.99 336.24,574.52 336.79,569.66C337.34,564.79 338.29,560.31 338.90,559.70C339.71,558.89 340.76,559.49 342.83,561.96C344.67,564.17 346.09,565.06 346.92,564.55C347.84,563.98 348.10,561.56 347.85,556.13C347.50,548.50 347.50,548.50 365.20,548.50C377.07,548.50 383.28,548.87 384.04,549.63C384.66,550.26 385.42,553.54 385.73,556.92C386.08,560.77 386.70,562.94 387.39,562.71C388.00,562.51 389.06,561.25 389.74,559.92C390.41,558.59 391.02,554.80 391.08,551.50C391.15,548.20 391.56,544.38 392.00,543.00C392.56,541.26 392.83,542.87 392.90,548.32C392.96,552.61 393.47,557.00 394.04,558.07C394.60,559.13 395.47,560.00 395.96,560.00C396.45,560.00 397.37,558.42 398.00,556.50C398.64,554.57 399.33,549.28 399.53,544.75C399.74,540.21 399.93,536.31 399.95,536.08C399.98,535.84 401.08,536.67 402.40,537.91C403.73,539.15 406.54,540.57 408.65,541.06C410.77,541.55 415.71,541.96 419.62,541.98C423.54,541.99 428.13,541.72 429.81,541.39C431.49,541.05 433.12,540.14 433.41,539.37C433.71,538.59 433.06,537.06 431.98,535.98C430.10,534.10 430.09,534.00 431.85,534.00C432.87,534.00 435.23,535.03 437.09,536.28C438.95,537.53 441.03,539.67 441.72,541.03C442.41,542.39 442.98,546.65 443.00,550.50C443.01,554.35 443.29,558.47 443.60,559.65C444.18,561.81 444.18,561.81 449.34,559.47C454.35,557.20 455.45,557.12 486.32,556.82C516.86,556.51 518.20,556.58 519.57,558.44C520.50,559.70 521.00,562.92 521.00,567.61C521.00,571.58 521.27,575.55 521.61,576.42C522.10,577.71 523.99,578.00 531.91,578.00C540.84,578.00 541.96,577.78 546.05,575.17C548.50,573.61 552.65,569.81 555.28,566.72C557.91,563.64 561.18,558.67 562.54,555.69C565.03,550.27 565.03,550.27 564.76,358.88C564.50,167.50 564.50,167.50 562.31,161.70C561.10,158.51 557.62,152.15 554.58,147.57C551.53,143.00 546.23,136.65 542.79,133.47C539.36,130.29 534.28,126.24 531.52,124.48C528.76,122.71 523.61,119.81 520.08,118.03C516.55,116.25 509.46,113.73 504.34,112.43C496.90,110.55 482.80,109.06 434.26,105.03C400.84,102.26 364.95,99.25 354.50,98.35C344.05,97.44 329.88,96.67 323.00,96.62C311.49,96.55 309.82,96.79 301.88,99.61C297.14,101.29 290.11,104.77 286.25,107.34C282.39,109.90 276.49,114.93 273.14,118.51C269.17,122.75 265.65,127.90 263.06,133.26C260.87,137.79 258.34,144.65 257.43,148.50C255.92,154.87 255.82,165.52 256.33,266.50C256.64,327.55 257.36,395.50 257.94,417.50C258.52,439.50 259.45,466.05 260.02,476.50C260.59,486.95 261.32,496.51 261.64,497.75C261.97,498.99 262.56,500.00 262.96,500.00C263.35,500.00 264.49,495.26 265.48,489.47C266.47,483.68 267.62,478.74 268.02,478.49C268.43,478.23 269.31,481.51 269.97,485.76C270.64,490.02 271.52,504.99 271.94,519.04C272.41,534.63 273.14,545.40 273.83,546.69C274.45,547.85 276.99,550.58 279.47,552.77C281.95,554.95 285.90,557.27 288.24,557.92C290.58,558.58 295.65,558.97 299.50,558.81C306.50,558.50 306.50,558.50 306.79,549.38C307.07,540.25 307.07,540.25 310.79,539.64C312.83,539.30 317.73,539.02 321.68,539.01C326.88,539.00 329.29,539.43 330.43,540.57C331.29,541.44 332.00,543.20 332.00,544.50C332.00,545.80 332.71,547.56 333.57,548.43C334.44,549.29 335.84,550.00 336.70,550.00C337.72,550.00 336.78,551.60 333.99,554.63C329.72,559.26 329.72,559.26 330.35,568.38C330.69,573.40 331.26,579.15 331.61,581.16C332.23,584.83 332.23,584.83 326.85,585.50C323.89,585.87 311.35,586.02 298.98,585.83C276.58,585.48 276.48,585.47 270.63,582.61C267.41,581.04 261.65,576.81 257.85,573.22C252.59,568.25 250.05,564.86 247.27,559.09C243.62,551.50 243.62,551.50 242.88,529.00C242.47,516.62 241.63,458.52 241.02,399.87C240.41,341.22 240.21,292.03 240.58,290.55C240.98,288.95 242.82,286.88 245.13,285.42C247.47,283.94 249.00,282.20 249.00,281.02C249.00,279.95 248.13,278.60 247.07,278.04C246.00,277.47 243.96,277.00 242.53,277.00C241.04,277.00 239.67,276.30 239.30,275.34C238.89,274.26 239.54,272.96 241.20,271.59C242.59,270.44 245.07,268.77 246.71,267.88C248.35,266.99 249.94,265.34 250.24,264.20C250.54,263.06 250.14,261.21 249.35,260.09C248.14,258.37 247.23,258.14 243.46,258.66C239.00,259.27 239.00,259.27 239.00,255.64C239.00,252.29 239.41,251.78 244.55,248.88C249.85,245.90 250.09,245.58 249.80,242.12C249.50,238.50 249.50,238.50 243.75,238.76C238.00,239.02 238.00,239.02 238.00,235.96C238.00,234.07 238.88,232.07 240.31,230.70C241.59,229.49 244.07,227.73 245.83,226.79C247.59,225.84 249.31,224.35 249.65,223.47C249.99,222.59 249.74,220.72 249.10,219.31C248.05,217.01 247.50,216.80 243.62,217.23C239.31,217.72 239.31,217.72 238.66,192.61C238.25,176.66 238.39,165.15 239.06,161.07C239.63,157.53 241.01,151.95 242.11,148.68C243.21,145.40 245.63,139.75 247.47,136.11C249.32,132.47 252.44,127.25 254.40,124.50C256.37,121.75 262.37,115.08 267.74,109.68C273.11,104.28 281.32,97.29 286.00,94.14C291.46,90.47 297.54,87.42 303.00,85.61C307.87,84.00 314.70,82.58 319.00,82.30C323.22,82.02 343.80,83.17 366.00,84.92C387.73,86.64 420.80,89.39 439.50,91.04C458.20,92.68 479.35,94.69 486.50,95.49C493.65,96.30 503.10,97.85 507.50,98.95C511.99,100.07 520.76,103.58 527.50,106.96C534.10,110.27 543.34,115.83 548.03,119.32C552.72,122.80 559.62,128.52 563.36,132.02C567.11,135.52 573.09,142.01 576.66,146.44C580.30,150.96 585.30,158.89 588.04,164.50C590.74,170.00 593.60,177.20 594.39,180.50C595.60,185.51 595.95,208.83 596.51,322.50C596.88,397.30 597.40,458.72 597.67,459.00C597.94,459.27 599.05,458.28 600.13,456.80C601.21,455.31 604.89,451.90 608.30,449.22C611.71,446.54 617.20,442.75 620.50,440.80C623.80,438.85 628.75,436.53 631.50,435.65C634.25,434.77 640.50,433.37 645.38,432.53C650.27,431.69 655.72,431.00 657.49,431.00C660.72,431.00 660.72,431.00 661.38,437.42C661.74,440.95 661.57,448.03 661.00,453.17C660.43,458.30 659.24,464.75 658.36,467.50C657.47,470.25 655.14,475.62 653.16,479.43C651.18,483.24 647.30,488.67 644.53,491.50C641.76,494.33 637.68,497.85 635.46,499.32C632.95,500.98 627.86,502.75 621.98,504.00C615.18,505.46 611.61,506.79 609.19,508.76C607.35,510.27 605.11,512.72 604.21,514.21C603.32,515.70 602.90,517.23 603.28,517.62C603.67,518.00 606.26,516.89 609.06,515.16C611.85,513.42 614.76,512.00 615.53,512.00C616.29,512.00 615.20,513.69 613.09,515.75C610.98,517.81 608.30,521.83 607.13,524.69C605.96,527.54 605.00,531.25 605.00,532.94C605.00,534.62 605.39,536.00 605.87,536.00C606.34,536.00 607.87,535.10 609.27,534.00C610.67,532.90 612.14,532.00 612.53,532.00C612.92,532.00 612.71,532.65 612.05,533.43C611.40,534.22 611.01,536.29 611.18,538.02C611.50,541.17 611.50,541.17 617.43,538.04C620.70,536.32 626.10,532.90 629.43,530.45C632.77,527.99 639.10,523.07 643.50,519.50C647.90,515.94 652.29,512.35 653.25,511.51C654.21,510.68 656.12,510.00 657.50,510.00C658.88,510.00 660.00,510.58 660.00,511.30C660.00,512.01 658.16,514.37 655.91,516.55C653.66,518.72 648.84,525.00 645.21,530.50C641.57,536.00 636.55,542.71 634.05,545.40C631.55,548.10 627.02,551.89 624.00,553.82C620.98,555.75 616.16,559.32 613.30,561.74C610.44,564.17 607.18,568.06 606.05,570.39C604.92,572.72 604.00,575.44 604.00,576.43C604.00,577.73 605.78,576.56 610.38,572.26C613.89,568.98 618.95,565.22 621.63,563.90C625.76,561.86 627.94,561.51 636.00,561.55C641.75,561.57 648.07,562.28 652.00,563.34C655.58,564.30 659.10,565.68 659.84,566.42C660.97,567.54 660.59,568.21 657.55,570.53C655.56,572.05 651.28,576.94 648.06,581.40C644.84,585.85 640.47,591.24 638.35,593.36C636.23,595.49 632.11,598.59 629.18,600.25C623.86,603.27 623.86,603.27 627.37,606.89C629.30,608.87 631.36,611.77 631.94,613.32C632.52,614.86 633.00,622.48 633.00,630.25C633.00,644.37 633.00,644.37 628.04,649.15C625.31,651.78 620.25,655.36 616.80,657.10C613.35,658.84 607.75,661.31 604.37,662.59C600.98,663.86 594.56,665.84 590.10,666.97C585.64,668.11 572.69,670.61 561.32,672.52C549.94,674.43 529.58,677.12 516.07,678.49C502.56,679.86 482.50,681.66 471.50,682.49C457.60,683.54 438.69,683.95 409.50,683.85zM425.00,658.37C439.57,658.12 460.39,657.26 471.26,656.46C482.13,655.67 496.98,654.33 504.26,653.50C511.54,652.67 523.99,651.06 531.93,649.94C539.87,648.82 550.67,647.05 555.93,646.01C561.19,644.97 569.55,643.22 574.50,642.11C579.45,641.00 586.65,639.13 590.50,637.95C594.35,636.76 601.84,633.57 607.15,630.85C613.75,627.48 618.26,624.36 621.40,621.00C624.60,617.58 626.00,615.24 626.00,613.29C625.99,611.76 625.15,609.12 624.12,607.44C623.10,605.75 620.06,602.97 617.38,601.25C614.70,599.53 609.12,596.80 605.00,595.17C600.88,593.55 592.68,590.98 586.80,589.47C576.09,586.72 576.09,586.72 568.99,591.58C565.09,594.25 561.41,597.00 560.83,597.70C560.07,598.62 560.15,599.10 561.14,599.41C561.89,599.65 567.05,600.75 572.62,601.85C578.18,602.96 584.40,604.56 586.44,605.41C589.05,606.50 590.06,607.49 589.83,608.73C589.65,609.70 587.40,611.54 584.83,612.82C582.26,614.09 576.49,615.78 571.99,616.56C566.88,617.45 556.27,618.02 543.66,618.07C532.57,618.11 504.60,618.57 481.50,619.09C453.54,619.73 423.62,619.69 392.00,618.99C365.88,618.41 337.26,617.55 328.41,617.09C319.56,616.62 311.33,615.71 310.11,615.06C308.90,614.41 301.72,613.49 294.17,613.01C286.62,612.53 277.30,611.42 273.47,610.53C269.64,609.64 263.23,607.30 259.23,605.33C253.67,602.59 250.28,599.94 244.86,594.12C240.96,589.93 237.17,586.16 236.44,585.74C235.70,585.31 232.20,586.07 228.44,587.49C224.77,588.87 219.23,591.54 216.13,593.43C213.03,595.32 208.53,598.55 206.12,600.62C203.71,602.69 201.12,605.85 200.37,607.66C199.62,609.46 199.00,612.52 199.00,614.47C199.00,617.14 199.91,619.01 202.75,622.17C205.43,625.14 209.65,627.85 217.50,631.63C223.55,634.54 234.10,638.53 240.95,640.49C247.80,642.46 258.83,645.16 265.45,646.50C272.08,647.84 285.82,650.05 296.00,651.42C306.18,652.79 323.70,654.64 334.95,655.53C346.21,656.43 365.11,657.53 376.95,657.99C388.80,658.45 410.43,658.62 425.00,658.37zM354.14,609.79C354.76,609.58 356.10,607.30 357.11,604.72C358.12,602.14 360.14,598.16 361.59,595.86C364.00,592.04 364.12,591.38 363.00,587.99C362.32,585.95 362.08,583.32 362.45,582.14C363.10,580.12 363.76,580.00 374.46,580.00C383.84,580.00 385.89,580.27 386.39,581.57C386.72,582.44 386.53,584.01 385.96,585.07C385.21,586.47 383.77,587.03 380.71,587.12C378.40,587.18 375.19,587.52 373.58,587.87C371.98,588.22 370.48,589.06 370.25,589.75C369.94,590.68 371.87,591.00 377.78,591.00C385.71,591.00 385.72,591.00 385.24,593.50C384.91,595.27 385.21,596.00 386.27,596.00C387.10,596.00 388.82,595.16 390.09,594.13C391.91,592.66 392.53,590.89 393.01,585.88C393.35,582.37 393.43,578.47 393.19,577.22C392.95,575.97 391.82,574.44 390.67,573.82C389.45,573.17 380.79,572.50 369.97,572.22C351.36,571.73 351.36,571.73 349.23,574.43C348.06,575.92 346.80,579.13 346.44,581.57C345.95,584.79 346.20,586.65 347.32,588.36C348.17,589.66 350.25,591.00 351.93,591.34C354.20,591.79 355.00,592.50 355.00,594.07C355.00,595.24 354.29,598.65 353.41,601.65C352.54,604.65 352.09,607.80 352.41,608.64C352.74,609.48 353.51,610.00 354.14,609.79zM459.34,604.74C459.98,604.54 461.19,603.06 462.03,601.44C462.87,599.82 464.29,597.38 465.18,596.00C466.21,594.40 466.78,591.40 466.75,587.69C466.73,584.50 467.20,581.40 467.79,580.81C468.38,580.22 473.51,578.68 479.18,577.39C484.86,576.10 490.74,575.03 492.26,575.02C494.32,575.01 495.54,575.83 497.01,578.25C498.10,580.04 498.99,582.96 499.00,584.75C499.00,587.63 498.68,588.00 496.25,588.02C494.74,588.02 492.84,588.45 492.03,588.96C490.87,589.69 491.18,590.11 493.53,590.97C495.17,591.57 497.76,592.56 499.31,593.17C501.38,594.00 502.41,593.99 503.23,593.17C503.85,592.55 504.55,588.28 504.80,583.67C505.20,575.96 505.06,575.13 502.97,573.19C501.73,572.03 498.64,570.72 496.10,570.29C493.57,569.86 485.43,569.50 478.00,569.51C467.05,569.52 463.89,569.85 461.28,571.27C459.51,572.23 457.56,573.96 456.94,575.10C456.18,576.54 456.05,581.30 456.54,590.34C456.93,597.58 457.46,603.86 457.71,604.30C457.97,604.74 458.70,604.94 459.34,604.74zM541.00,591.18C545.75,590.95 549.24,590.03 553.96,587.77C558.47,585.60 562.88,582.22 568.55,576.58C574.01,571.16 577.64,566.53 579.59,562.50C582.50,556.50 582.50,556.50 582.80,381.00C582.97,284.47 582.81,201.31 582.46,196.19C581.91,188.43 581.42,186.44 579.47,184.19C577.24,181.64 577.04,181.59 575.37,183.23C573.81,184.76 573.50,188.30 572.72,213.23C572.24,228.78 572.09,311.76 572.40,397.63C572.96,553.77 572.96,553.77 570.01,559.63C568.40,562.86 564.47,568.31 561.29,571.75C558.10,575.18 552.90,579.52 549.73,581.39C544.79,584.30 542.68,584.89 535.02,585.50C529.18,585.96 525.66,586.71 524.88,587.65C524.17,588.51 524.05,589.44 524.59,589.98C525.09,590.47 527.52,591.01 530.00,591.19C532.48,591.36 537.42,591.36 541.00,591.18zM622.24,582.00C623.17,582.00 626.31,581.07 629.21,579.92C632.12,578.78 638.46,575.59 643.30,572.82C648.14,570.06 651.93,567.28 651.72,566.65C651.51,566.02 649.39,565.36 646.99,565.18C644.60,565.01 640.80,565.57 638.55,566.43C636.10,567.36 631.67,570.80 627.50,575.00C623.05,579.48 621.16,582.00 622.24,582.00zM320.39,523.51C316.05,523.70 311.38,523.62 310.00,523.33C308.62,523.04 306.94,522.35 306.25,521.78C305.45,521.12 305.00,517.99 305.00,512.98C305.00,506.82 305.33,505.09 306.58,504.61C307.45,504.27 312.37,504.00 317.51,504.00C324.67,504.00 327.22,504.37 328.43,505.57C329.55,506.69 330.00,509.07 329.98,513.82C329.98,517.49 329.59,521.10 329.12,521.84C328.57,522.71 325.56,523.29 320.39,523.51zM358.29,523.53C355.10,523.73 350.81,523.53 348.74,523.10C346.67,522.67 344.73,522.06 344.42,521.75C344.11,521.45 343.60,517.79 343.29,513.62C342.80,507.14 342.96,505.95 344.38,505.41C345.30,505.06 350.06,504.71 354.96,504.63C360.27,504.55 364.33,504.94 364.99,505.60C365.59,506.20 366.35,509.81 366.67,513.62C367.14,519.22 366.95,520.80 365.66,521.86C364.79,522.59 361.47,523.34 358.29,523.53zM397.50,523.82C395.30,523.79 392.71,523.56 391.75,523.31C390.79,523.06 389.75,521.86 389.45,520.66C389.15,519.45 389.03,515.32 389.20,511.48C389.50,504.50 389.50,504.50 399.50,504.25C405.00,504.11 410.16,504.42 410.96,504.94C411.95,505.58 412.53,508.10 412.76,512.69C412.94,516.44 412.66,520.13 412.14,520.89C411.63,521.66 409.02,522.64 406.35,523.08C403.68,523.52 399.70,523.86 397.50,523.82zM209.64,523.00C208.58,523.00 206.10,519.17 202.45,511.89C199.38,505.79 197.08,500.58 197.33,500.33C197.58,500.08 199.43,501.32 201.43,503.08C203.44,504.83 206.16,508.13 207.49,510.39C208.81,512.65 210.20,516.41 210.58,518.75C211.14,522.28 210.98,523.00 209.64,523.00zM445.55,523.00C439.88,523.00 436.90,522.58 436.15,521.68C435.54,520.95 434.74,517.08 434.37,513.08C433.84,507.37 434.00,505.62 435.10,504.92C435.87,504.43 440.13,504.02 444.56,504.02C449.52,504.01 453.22,504.48 454.19,505.25C455.21,506.06 455.97,508.87 456.34,513.22C456.79,518.49 456.59,520.27 455.39,521.47C454.26,522.60 451.68,523.00 445.55,523.00zM479.32,522.98C475.57,522.98 471.90,522.59 471.17,522.12C470.42,521.65 469.60,518.64 469.29,515.23C468.99,511.90 469.03,508.01 469.39,506.59C470.03,504.05 470.21,504.00 478.82,504.00C484.32,504.00 488.05,504.45 488.80,505.20C489.51,505.91 490.00,509.35 490.00,513.66C490.00,519.82 489.71,521.09 488.07,521.96C487.00,522.53 483.06,522.99 479.32,522.98zM514.00,522.30C510.98,522.58 507.49,522.60 506.25,522.34C505.00,522.07 503.76,520.88 503.45,519.65C503.14,518.43 503.03,514.53 503.20,510.97C503.50,504.50 503.50,504.50 511.85,504.21C517.14,504.02 520.71,504.34 521.60,505.08C522.55,505.87 523.00,508.44 523.00,513.09C523.00,518.58 522.66,520.11 521.25,520.86C520.29,521.38 517.02,522.03 514.00,522.30zM317.48,496.78C309.76,496.98 306.09,496.69 305.23,495.83C304.47,495.07 304.00,491.65 304.00,486.84C304.00,480.18 304.28,478.92 305.93,478.04C307.00,477.47 311.92,477.00 316.86,477.00C323.80,477.00 326.23,477.37 327.47,478.61C328.74,479.88 329.02,481.93 328.79,488.36C328.50,496.50 328.50,496.50 317.48,496.78zM353.94,497.00C348.54,497.00 343.87,496.60 343.57,496.12C343.27,495.64 342.73,491.39 342.37,486.67C341.71,478.11 341.71,478.11 344.35,477.45C345.80,477.09 350.57,476.95 354.95,477.15C359.33,477.35 363.40,478.00 364.00,478.60C364.60,479.20 365.36,482.90 365.69,486.82C366.11,491.87 365.92,494.40 365.02,495.48C364.04,496.65 361.51,497.00 353.94,497.00zM399.50,497.00C390.21,497.00 388.96,496.79 388.04,495.07C387.47,494.00 387.00,490.04 387.00,486.27C387.00,482.26 387.50,478.90 388.20,478.20C388.96,477.44 392.76,477.00 398.51,477.00C404.22,477.00 408.25,477.47 409.32,478.25C410.50,479.11 411.22,481.56 411.64,486.08C412.04,490.31 411.84,493.43 411.09,494.83C410.01,496.84 409.18,497.00 399.50,497.00zM445.33,496.78C438.24,496.98 434.94,496.71 434.42,495.87C434.01,495.21 433.47,491.37 433.21,487.35C432.89,482.33 433.13,479.54 433.99,478.51C434.93,477.37 437.38,477.00 443.87,477.02C448.62,477.02 453.18,477.46 454.00,477.98C455.15,478.70 455.50,480.99 455.50,487.71C455.50,496.50 455.50,496.50 445.33,496.78zM480.07,497.00C475.44,497.00 471.69,496.50 470.65,495.73C469.19,494.67 468.96,493.10 469.21,485.98C469.50,477.50 469.50,477.50 478.10,477.21C485.12,476.98 486.95,477.23 488.07,478.59C488.84,479.51 489.62,483.31 489.84,487.13C490.09,491.66 489.80,494.53 488.99,495.51C488.09,496.59 485.66,497.00 480.07,497.00zM512.34,497.00C506.08,497.00 504.92,496.72 503.99,494.99C503.40,493.88 503.05,489.49 503.21,485.24C503.50,477.50 503.50,477.50 511.70,477.50C516.99,477.50 520.35,477.95 521.17,478.77C521.87,479.47 522.62,483.26 522.84,487.19C523.18,493.24 522.96,494.55 521.43,495.67C520.32,496.49 516.81,497.00 512.34,497.00zM603.93,486.00C604.30,486.00 606.10,482.29 607.93,477.75C609.75,473.21 612.59,467.36 614.24,464.73C615.88,462.11 619.27,458.18 621.76,455.98C624.24,453.79 626.64,452.00 627.09,452.00C627.53,452.00 627.42,453.36 626.85,455.01C626.27,456.67 626.06,458.72 626.39,459.58C626.72,460.43 627.44,460.85 627.99,460.50C628.55,460.16 629.00,460.10 629.00,460.36C629.00,460.63 627.56,462.29 625.80,464.05C622.59,467.25 622.59,467.25 624.80,469.04C626.01,470.02 627.00,471.54 627.00,472.41C627.00,473.48 627.89,473.99 629.75,473.98C631.26,473.96 634.25,473.55 636.38,473.05C638.63,472.53 641.82,470.63 643.98,468.52C646.03,466.52 648.69,462.91 649.89,460.50C651.09,458.09 652.73,453.06 653.52,449.31C654.32,445.57 654.97,440.59 654.98,438.25C655.00,435.07 654.61,434.00 653.45,434.00C652.60,434.00 650.69,434.60 649.20,435.34C647.72,436.07 644.57,436.77 642.22,436.88C639.86,436.99 635.12,437.95 631.68,439.02C628.23,440.08 623.18,442.42 620.46,444.22C617.73,446.02 613.65,449.33 611.40,451.57C609.14,453.81 605.79,458.72 603.94,462.46C601.14,468.16 600.59,470.39 600.59,476.04C600.59,480.19 601.10,483.42 601.92,484.40C602.65,485.28 603.55,486.00 603.93,486.00zM219.21,480.77C219.95,480.52 220.63,478.36 220.80,475.67C221.08,471.41 220.87,470.90 218.47,469.99C217.02,469.44 214.42,468.88 212.70,468.74C210.38,468.56 209.48,468.96 209.21,470.30C208.97,471.42 210.55,473.81 213.38,476.64C215.88,479.14 218.51,481.00 219.21,480.77zM340.28,460.83C333.80,460.74 324.82,460.40 320.32,460.08C314.23,459.65 311.41,458.96 309.32,457.41C307.77,456.26 305.89,454.07 305.13,452.53C304.38,451.00 303.77,447.57 303.77,444.91C303.77,441.99 304.52,438.78 305.67,436.79C306.71,434.98 309.13,432.70 311.03,431.73C314.13,430.14 316.48,430.02 333.00,430.58C347.07,431.06 352.34,431.60 354.99,432.85C357.07,433.83 359.39,436.12 360.72,438.50C362.11,440.98 362.97,444.21 362.98,447.00C362.99,449.77 362.22,452.77 360.97,454.81C359.86,456.63 357.41,458.77 355.51,459.56C353.08,460.58 348.61,460.95 340.28,460.83zM499.67,460.64C490.78,460.72 480.98,460.50 477.90,460.14C474.83,459.79 471.60,458.92 470.75,458.20C469.89,457.49 468.47,455.40 467.59,453.55C466.72,451.71 466.00,448.11 466.00,445.55C466.00,442.99 466.65,439.64 467.45,438.10C468.25,436.56 470.11,434.50 471.59,433.54C473.98,431.97 476.47,431.82 494.41,432.15C513.27,432.51 514.73,432.67 517.65,434.75C519.37,435.98 521.50,438.79 522.39,441.01C523.27,443.23 524.00,446.18 524.00,447.57C524.00,448.96 523.37,451.31 522.60,452.80C521.82,454.28 519.99,456.62 518.52,458.00C515.91,460.44 515.45,460.50 499.67,460.64zM404.00,459.17C402.07,459.35 397.38,459.28 393.56,459.00C386.68,458.50 386.61,458.47 385.76,455.18C385.29,453.35 385.04,449.30 385.20,446.18C385.50,440.50 385.50,440.50 396.10,440.22C404.62,439.99 406.95,440.23 407.97,441.46C408.66,442.30 409.44,445.80 409.70,449.24C410.03,453.58 409.77,456.01 408.84,457.17C408.10,458.09 405.93,458.99 404.00,459.17zM442.73,458.79C435.45,459.00 432.86,458.75 432.56,457.79C432.34,457.08 431.88,453.70 431.53,450.27C431.15,446.48 431.33,443.25 431.99,442.02C432.95,440.23 434.06,440.00 441.91,440.00C448.29,440.00 451.08,440.39 451.92,441.41C452.65,442.29 452.98,445.73 452.79,450.66C452.50,458.50 452.50,458.50 442.73,458.79zM331.70,451.15C332.56,450.67 335.23,450.50 337.63,450.77C342.00,451.26 342.00,451.26 341.36,447.88C341.00,446.02 340.08,443.23 339.30,441.69C338.48,440.05 337.23,439.01 336.31,439.19C335.44,439.36 333.41,441.85 331.79,444.72C330.17,447.59 329.13,450.41 329.49,450.98C329.88,451.62 330.74,451.69 331.70,451.15zM490.81,451.99C491.74,451.98 493.51,451.70 494.75,451.37C495.99,451.04 497.00,450.41 497.00,449.98C497.00,449.55 495.65,448.73 494.00,448.15C492.35,447.57 491.00,446.82 491.00,446.46C491.00,446.11 492.80,446.13 495.00,446.50C498.30,447.06 499.00,446.89 499.00,445.56C499.00,444.67 498.32,443.68 497.50,443.36C496.68,443.05 496.00,442.16 496.00,441.39C496.00,440.56 494.96,440.00 493.43,440.00C492.02,440.00 489.96,440.48 488.86,441.08C487.14,441.99 486.95,442.76 487.54,446.33C487.92,448.62 488.43,450.84 488.67,451.25C488.92,451.66 489.88,451.99 490.81,451.99zM165.00,427.54C161.97,427.73 157.38,427.50 154.78,427.03C152.18,426.56 147.61,425.05 144.61,423.68C141.60,422.30 137.02,419.23 134.42,416.84C131.70,414.34 128.62,410.17 127.16,407.00C125.07,402.44 124.57,399.62 124.25,390.50C124.04,384.45 124.24,377.73 124.71,375.57C125.18,373.41 126.11,371.46 126.78,371.24C127.45,371.02 128.01,371.43 128.03,372.17C128.04,372.90 130.93,377.25 134.45,381.83C137.96,386.42 142.31,391.26 144.11,392.58C146.01,393.98 148.77,395.00 150.66,395.00C153.36,395.00 153.82,394.69 153.30,393.25C152.95,392.29 151.14,389.09 149.28,386.15C147.42,383.21 146.48,380.98 147.20,381.21C147.91,381.43 150.97,384.91 154.00,388.94C157.87,394.10 159.56,395.71 159.70,394.39C159.80,393.35 160.18,389.81 160.55,386.53C161.20,380.55 161.20,380.55 164.35,384.05C166.08,385.97 168.69,389.11 170.15,391.02C171.60,392.93 173.10,394.20 173.48,393.83C173.86,393.47 174.41,391.33 174.71,389.09C175.08,386.40 174.79,384.45 173.88,383.34C173.12,382.42 170.70,380.33 168.50,378.69C166.30,377.05 165.40,376.02 166.50,376.40C167.60,376.78 170.93,378.54 173.89,380.30C176.86,382.06 181.01,385.67 183.12,388.32C185.23,390.96 187.65,395.43 188.48,398.25C189.32,401.06 190.00,404.76 190.00,406.46C190.00,408.16 188.49,412.69 186.64,416.53C183.29,423.50 183.29,423.50 176.89,425.35C173.38,426.37 168.03,427.36 165.00,427.54zM162.50,419.36C166.90,419.06 170.71,418.61 170.97,418.36C171.23,418.10 170.78,417.47 169.97,416.96C169.16,416.45 165.35,416.02 161.50,416.01C155.99,415.99 153.33,415.41 149.00,413.31C143.50,410.65 143.50,410.65 150.38,409.89C154.16,409.48 157.70,408.70 158.24,408.16C158.78,407.62 158.96,406.74 158.64,406.22C158.31,405.69 156.12,404.96 153.77,404.60C151.42,404.23 146.95,403.22 143.83,402.36C140.71,401.49 136.66,399.50 134.83,397.93C131.50,395.08 131.50,395.08 137.40,395.04C143.30,395.00 143.30,395.00 139.90,392.72C138.03,391.46 134.74,387.88 132.59,384.75C130.44,381.63 128.27,379.33 127.76,379.65C127.25,379.96 127.14,382.49 127.52,385.36C127.89,388.19 128.76,391.40 129.46,392.51C130.16,393.61 130.52,395.91 130.27,397.61C129.98,399.59 130.62,402.31 132.02,405.11C133.23,407.52 135.19,410.56 136.36,411.85C137.54,413.14 140.23,415.08 142.34,416.17C144.46,417.25 148.06,418.53 150.34,419.01C152.63,419.49 158.10,419.65 162.50,419.36zM306.17,415.81C305.25,415.70 298.57,415.36 291.33,415.06C284.09,414.75 277.90,414.24 277.59,413.92C277.27,413.61 276.58,372.21 276.05,321.92C275.51,271.64 274.83,216.32 274.53,199.00C274.23,181.68 274.39,163.96 274.89,159.64C275.56,153.85 276.78,149.80 279.52,144.27C282.03,139.18 285.38,134.58 289.87,130.04C294.39,125.47 298.81,122.19 303.74,119.74C307.72,117.76 313.34,115.85 316.24,115.49C319.29,115.11 335.17,115.93 354.00,117.44C371.88,118.88 398.65,121.18 413.50,122.56C428.35,123.94 451.30,125.97 464.50,127.07C477.70,128.17 491.31,129.73 494.75,130.52C498.19,131.32 503.81,133.39 507.25,135.12C510.69,136.86 515.98,139.95 519.00,142.01C522.03,144.06 526.41,147.81 528.75,150.34C531.08,152.87 534.56,157.40 536.48,160.39C538.39,163.39 540.94,168.83 542.14,172.47C543.53,176.70 543.96,179.44 543.35,180.05C542.74,180.66 541.60,180.27 540.20,178.97C538.99,177.84 534.61,172.71 530.47,167.55C526.32,162.40 521.77,157.42 520.35,156.49C518.61,155.35 516.75,155.00 514.68,155.41C512.99,155.75 495.83,154.90 476.55,153.52C457.27,152.13 425.30,149.89 405.50,148.52C385.70,147.15 355.88,145.04 339.24,143.82C315.96,142.12 308.72,141.88 307.81,142.79C306.90,143.70 306.92,165.46 307.89,237.24C308.59,288.53 309.55,339.73 310.02,351.00C310.50,362.27 310.91,381.24 310.94,393.14C310.99,411.99 310.80,414.86 309.42,415.39C308.55,415.73 307.09,415.91 306.17,415.81zM386.00,391.65C379.38,391.83 373.80,391.45 370.90,390.61C368.37,389.88 363.87,388.16 360.90,386.79C357.93,385.41 353.20,382.54 350.39,380.39C347.58,378.25 343.45,374.36 341.20,371.76C338.95,369.15 335.51,363.75 333.54,359.76C331.13,354.85 329.60,349.91 328.83,344.50C327.87,337.80 327.95,335.21 329.32,328.56C330.21,324.20 332.16,318.13 333.65,315.06C335.26,311.75 339.21,306.64 343.42,302.42C347.65,298.20 352.72,294.28 356.00,292.70C359.02,291.24 364.43,289.31 368.00,288.40C372.62,287.23 376.58,286.93 381.66,287.36C385.59,287.69 391.31,288.89 394.36,290.04C397.42,291.18 403.20,294.26 407.21,296.89C411.22,299.52 416.86,304.11 419.75,307.09C422.64,310.06 426.60,315.54 428.55,319.25C430.51,322.96 432.80,329.26 433.64,333.25C434.65,337.99 434.96,342.68 434.56,346.80C434.21,350.27 433.02,355.54 431.90,358.53C430.79,361.51 427.89,366.64 425.47,369.94C423.04,373.23 418.46,377.98 415.28,380.50C412.10,383.02 406.57,386.49 403.00,388.22C397.18,391.03 395.40,391.39 386.00,391.65zM500.67,389.79C493.98,389.68 484.23,389.45 479.00,389.29C473.77,389.13 468.46,388.76 467.19,388.47C465.21,388.01 464.93,387.40 465.19,384.22C465.50,380.50 465.50,380.50 489.23,380.61C506.70,380.70 513.37,381.06 514.48,381.99C515.32,382.68 516.00,384.49 516.00,386.02C516.00,387.62 515.33,389.04 514.42,389.39C513.55,389.73 507.36,389.91 500.67,389.79zM388.11,374.00C390.41,374.00 391.07,373.47 391.54,371.25C391.86,369.74 392.44,367.89 392.83,367.14C393.22,366.40 395.74,364.95 398.44,363.93C401.13,362.90 404.88,360.59 406.75,358.78C408.63,356.98 410.81,354.28 411.59,352.80C412.36,351.31 413.00,348.21 413.00,345.89C413.00,342.32 412.43,341.14 409.16,338.04C406.71,335.71 403.00,333.62 398.93,332.29C393.27,330.43 392.45,329.84 391.72,327.00C391.27,325.25 391.03,321.94 391.20,319.66C391.46,316.01 391.82,315.46 394.13,315.20C396.04,314.97 397.35,315.65 398.92,317.70C400.11,319.24 401.90,321.59 402.89,322.92C404.09,324.54 405.25,325.12 406.39,324.68C407.74,324.16 407.96,323.29 407.44,320.51C406.86,317.45 407.03,317.00 408.78,317.00C409.88,317.00 411.80,316.17 413.06,315.16C414.51,313.98 415.10,312.72 414.70,311.66C414.35,310.75 413.41,310.00 412.61,310.00C411.81,310.00 409.77,311.17 408.08,312.59C405.00,315.18 405.00,315.18 401.95,312.62C400.28,311.21 397.13,309.52 394.95,308.87C391.14,307.73 391.00,307.53 391.00,303.38C391.00,300.07 390.53,298.82 388.96,297.98C387.84,297.38 386.10,297.15 385.10,297.47C383.94,297.84 382.95,299.58 382.38,302.27C381.52,306.36 381.35,306.52 377.00,307.05C374.52,307.35 370.79,308.43 368.69,309.44C366.60,310.45 363.84,312.68 362.56,314.39C361.28,316.10 359.91,318.56 359.52,319.85C359.09,321.26 359.45,323.88 360.42,326.42C361.30,328.74 363.32,331.60 364.89,332.76C366.47,333.93 370.17,335.61 373.13,336.51C376.08,337.41 379.16,338.49 379.98,338.92C380.79,339.34 381.76,340.77 382.13,342.09C382.50,343.42 382.85,347.38 382.90,350.89C383.00,357.28 383.00,357.28 377.61,356.72C374.65,356.42 370.82,355.44 369.11,354.56C366.69,353.30 366.00,352.29 366.00,349.97C366.00,348.33 365.10,346.10 364.00,345.00C362.90,343.90 361.10,343.00 360.00,343.00C358.48,343.00 358.00,343.66 358.01,345.75C358.01,347.26 358.46,350.10 359.00,352.06C359.72,354.64 361.05,356.22 363.80,357.77C365.90,358.95 369.34,361.28 371.44,362.95C374.39,365.29 376.28,366.00 379.63,366.00C383.93,366.00 383.98,366.04 384.62,370.00C385.19,373.58 385.55,374.00 388.11,374.00zM497.50,361.58C487.60,361.62 476.12,361.40 472.00,361.08C464.50,360.50 464.50,360.50 464.19,356.25C463.89,352.00 463.89,352.00 480.19,352.11C489.16,352.17 500.77,352.51 506.00,352.86C515.50,353.50 515.50,353.50 515.50,357.50C515.50,361.50 515.50,361.50 497.50,361.58zM395.34,357.00C394.10,357.00 392.91,356.23 392.61,355.25C392.33,354.29 391.99,350.38 391.87,346.56C391.73,341.99 392.05,339.48 392.82,339.23C393.46,339.01 395.49,339.34 397.33,339.94C399.17,340.55 401.93,342.36 403.46,343.96C405.60,346.19 406.10,347.46 405.61,349.41C405.26,350.80 403.30,353.08 401.26,354.47C399.21,355.86 396.55,357.00 395.34,357.00zM506.17,340.85C503.05,340.77 492.68,340.33 483.13,339.87C472.75,339.38 465.21,338.59 464.38,337.90C463.62,337.27 463.00,335.72 463.00,334.45C463.00,333.18 463.72,331.42 464.61,330.54C465.49,329.65 466.95,329.14 467.86,329.40C468.76,329.65 478.95,330.17 490.50,330.55C502.05,330.93 512.29,331.65 513.25,332.15C514.39,332.75 515.00,334.25 515.00,336.43C515.00,338.57 514.43,340.01 513.42,340.39C512.55,340.73 509.29,340.93 506.17,340.85zM379.89,329.96C378.57,329.93 375.83,329.03 373.78,327.95C371.74,326.87 369.60,325.12 369.03,324.06C368.46,323.00 368.00,321.28 368.00,320.24C368.00,319.20 369.04,317.37 370.31,316.17C371.65,314.92 373.92,314.00 375.69,314.00C377.38,314.00 379.31,314.67 379.99,315.49C380.67,316.31 381.46,319.91 381.75,323.49C382.26,329.84 382.22,330.00 379.89,329.96zM348.97,319.00C349.51,319.00 350.67,317.60 351.56,315.88C352.45,314.16 356.36,309.66 360.26,305.88C364.16,302.10 367.03,299.00 366.64,299.00C366.25,299.00 363.81,300.08 361.22,301.41C358.62,302.73 355.29,305.09 353.80,306.66C352.32,308.22 350.41,311.17 349.55,313.22C348.70,315.26 348.00,317.40 348.00,317.97C348.00,318.54 348.44,319.00 348.97,319.00zM510.00,317.83C509.73,317.75 499.67,317.34 487.66,316.91C475.64,316.49 465.22,315.92 464.50,315.64C463.78,315.36 462.87,313.70 462.49,311.96C461.99,309.69 462.24,308.34 463.33,307.24C464.69,305.88 467.55,305.84 488.61,306.88C502.57,307.57 512.91,308.51 513.68,309.15C514.41,309.75 515.00,311.71 515.00,313.51C515.00,316.04 514.50,316.90 512.75,317.37C511.51,317.70 510.27,317.91 510.00,317.83zM509.46,269.79C505.58,269.95 502.09,269.76 501.71,269.37C501.32,268.98 501.00,266.26 501.00,263.33C501.00,257.99 501.00,257.99 508.25,258.64C512.24,259.01 515.84,259.80 516.26,260.40C516.68,261.01 516.90,263.30 516.76,265.50C516.50,269.50 516.50,269.50 509.46,269.79zM461.64,268.83C457.16,268.73 451.64,268.48 449.36,268.27C447.00,268.06 444.50,267.10 443.55,266.05C442.39,264.77 441.97,262.86 442.19,259.85C442.50,255.50 442.50,255.50 454.00,255.77C460.32,255.92 466.46,256.25 467.64,256.51C468.82,256.77 470.07,257.74 470.42,258.66C470.78,259.59 470.78,262.29 470.42,264.67C469.77,269.00 469.77,269.00 461.64,268.83zM487.06,269.00C483.79,269.00 480.87,268.60 480.57,268.12C480.27,267.63 479.95,265.15 479.85,262.61C479.75,260.07 479.99,257.68 480.37,257.30C480.75,256.91 483.19,256.73 485.78,256.89C488.38,257.05 491.06,257.64 491.75,258.21C492.44,258.78 493.00,261.44 493.00,264.12C493.00,269.00 493.00,269.00 487.06,269.00zM378.03,264.00C376.52,264.00 373.57,262.84 371.48,261.42C369.40,260.01 363.40,254.95 358.17,250.17C352.93,245.40 346.46,239.25 343.79,236.50C339.72,232.31 339.00,231.01 339.36,228.50C339.60,226.85 340.49,223.70 341.35,221.50C342.36,218.91 342.93,214.14 342.96,207.97C342.99,201.02 343.42,197.84 344.56,196.22C345.41,195.00 350.35,191.50 355.53,188.45C360.72,185.40 367.45,181.81 370.51,180.45C373.56,179.10 377.10,178.00 378.37,178.00C379.64,178.00 383.34,179.88 386.59,182.17C389.84,184.47 395.32,188.79 398.77,191.77C402.22,194.76 405.55,198.16 406.17,199.32C406.80,200.49 407.92,204.98 408.67,209.31C409.54,214.32 411.30,219.57 413.52,223.74C415.43,227.35 417.00,230.87 417.00,231.57C417.00,232.27 415.84,234.23 414.41,235.92C412.99,237.61 406.90,243.16 400.87,248.25C394.85,253.34 387.86,258.96 385.34,260.75C382.83,262.54 379.54,264.00 378.03,264.00zM376.20,256.00C377.22,256.00 378.33,255.30 378.66,254.44C378.99,253.59 379.31,249.87 379.38,246.19C379.50,239.50 379.50,239.50 389.20,239.86C398.89,240.21 398.89,240.21 404.70,234.87C407.89,231.93 410.67,229.42 410.89,229.29C411.10,229.17 410.47,227.81 409.48,226.28C408.50,224.75 404.19,220.12 399.90,216.00C394.25,210.56 390.61,205.89 386.65,199.00C383.65,193.78 380.59,189.39 379.85,189.25C379.11,189.11 378.02,189.34 377.43,189.75C376.84,190.16 373.60,194.12 370.25,198.55C366.89,202.98 360.03,211.25 355.02,216.93C348.63,224.16 345.98,227.88 346.20,229.36C346.38,230.64 348.16,232.39 350.71,233.79C353.49,235.32 357.39,236.32 362.12,236.71C367.18,237.14 369.86,237.86 371.16,239.16C372.59,240.59 373.00,242.53 373.00,247.83C373.00,251.59 373.30,254.97 373.67,255.33C374.03,255.70 375.17,256.00 376.20,256.00zM511.67,248.86C510.48,248.78 507.70,248.44 505.50,248.11C501.50,247.50 501.50,247.50 501.20,241.75C500.90,236.00 500.90,236.00 507.02,236.00C510.38,236.00 514.00,236.47 515.07,237.04C516.57,237.84 517.00,239.15 517.00,242.93C517.00,246.44 516.56,247.95 515.42,248.39C514.55,248.73 512.86,248.94 511.67,248.86zM487.33,248.00C484.05,248.00 480.86,247.46 480.20,246.80C479.36,245.96 479.00,240.31 479.00,227.80C479.00,210.00 479.00,210.00 484.94,210.00C488.21,210.00 491.09,210.34 491.34,210.75C491.59,211.16 492.12,219.71 492.52,229.75C493.26,248.00 493.26,248.00 487.33,248.00zM463.00,245.59C459.43,245.64 453.35,245.42 449.50,245.09C442.50,244.50 442.50,244.50 442.20,238.65C441.89,232.79 441.89,232.79 454.70,233.51C461.74,233.91 468.08,234.70 468.80,235.28C469.61,235.94 469.99,238.03 469.80,240.91C469.50,245.50 469.50,245.50 463.00,245.59zM392.42,234.93C390.81,234.89 387.36,234.20 384.75,233.40C382.14,232.60 380.00,231.47 380.00,230.90C380.00,230.33 381.36,226.63 383.03,222.68C384.70,218.73 386.95,214.44 388.03,213.14C389.21,211.73 390.61,211.02 391.53,211.37C392.38,211.70 394.40,214.78 396.03,218.23C397.66,221.68 399.00,226.12 399.00,228.10C399.00,230.31 398.30,232.33 397.17,233.35C396.17,234.26 394.03,234.97 392.42,234.93zM371.25,230.80C370.29,231.27 367.58,231.31 365.23,230.88C362.89,230.45 360.53,229.83 359.98,229.49C359.44,229.16 359.00,228.21 359.00,227.40C359.00,226.58 360.85,223.46 363.12,220.46C365.39,217.46 367.80,215.00 368.49,215.00C369.17,215.00 370.47,217.62 371.37,220.82C372.27,224.01 373.00,227.37 373.00,228.28C373.00,229.19 372.21,230.32 371.25,230.80zM511.17,226.83C509.70,226.74 506.86,226.49 504.86,226.28C501.26,225.90 501.21,225.82 500.54,220.46C500.16,217.47 500.16,214.07 500.53,212.90C501.16,210.93 501.65,210.84 507.85,211.49C511.51,211.88 515.06,212.66 515.75,213.22C516.49,213.82 517.00,216.61 517.00,220.02C517.00,224.35 516.61,225.94 515.42,226.39C514.55,226.73 512.64,226.92 511.17,226.83zM461.23,223.86C456.98,223.78 451.25,223.44 448.50,223.09C445.75,222.75 442.94,222.11 442.25,221.67C441.46,221.17 441.00,218.51 441.00,214.44C441.00,208.00 441.00,208.00 447.25,208.05C450.69,208.08 456.54,208.44 460.25,208.85C463.97,209.27 467.47,210.07 468.04,210.64C468.61,211.21 469.34,213.30 469.66,215.28C469.98,217.27 469.96,220.04 469.60,221.45C468.98,223.93 468.74,224.00 461.23,223.86zM377.05,210.92C376.75,210.88 375.94,210.62 375.25,210.34C374.56,210.06 374.01,209.08 374.02,208.17C374.03,207.25 374.87,205.42 375.89,204.11C376.91,202.77 378.23,202.02 378.86,202.42C379.49,202.80 380.00,204.35 380.00,205.86C380.00,207.37 379.46,209.14 378.80,209.80C378.14,210.46 377.35,210.96 377.05,210.92zM509.37,200.79C504.76,201.02 502.83,200.69 501.62,199.47C500.53,198.39 500.00,196.10 500.00,192.49C500.00,189.53 500.36,186.89 500.81,186.62C501.25,186.34 504.25,186.48 507.46,186.91C511.39,187.45 513.77,188.33 514.70,189.60C515.53,190.74 515.97,193.30 515.79,196.00C515.50,200.50 515.50,200.50 509.37,200.79zM485.97,200.00C481.15,200.00 479.80,199.65 479.25,198.25C478.87,197.29 478.55,194.03 478.53,191.00C478.50,185.50 478.50,185.50 483.83,185.19C486.90,185.02 489.76,185.39 490.58,186.07C491.53,186.86 492.00,189.34 492.00,193.62C492.00,200.00 492.00,200.00 485.97,200.00zM464.90,198.85C462.48,198.77 456.30,198.39 451.16,198.01C444.82,197.54 441.53,196.87 440.92,195.91C440.43,195.13 440.02,193.10 440.02,191.38C440.01,189.67 440.97,187.03 442.17,185.52C444.33,182.76 444.33,182.76 455.65,183.19C461.87,183.43 467.22,183.88 467.53,184.20C467.84,184.51 468.37,187.97 468.69,191.88C469.29,199.00 469.29,199.00 464.90,198.85z" />

</svg>
